<svg preserveAspectRatio="none" width="100%" height="100%" overflow="visible" style="display: block;" viewBox="0 0 43.1893 54.335" fill="none" xmlns="http://www.w3.org/2000/svg">
<path id="Vector" d="M0 54.335C0 51.7164 0.217656 49.3161 0.65297 47.1339C1.08828 44.8895 1.83454 42.7697 2.89173 40.7746C4.0111 38.7795 5.5347 36.9091 7.46252 35.1634C9.45252 33.3554 11.9711 31.6408 15.0183 30.0198C17.1949 28.7729 19.2471 27.6818 21.1749 26.7466C23.1027 25.7491 24.8129 24.7827 26.3054 23.8475C27.7979 22.85 28.9483 21.7901 29.7568 20.6679C30.6274 19.5456 31.0627 18.2675 31.0627 16.8335C31.0627 15.4619 30.6896 14.1838 29.9434 12.9992C29.1971 11.8147 28.0777 10.8795 26.5852 10.1936C25.0927 9.44549 23.2893 9.07141 21.1749 9.07141C19.4958 9.07141 17.9411 9.28963 16.5108 9.72605C15.1427 10.1625 13.8678 10.7548 12.6863 11.5029C11.5669 12.1887 10.5408 12.9681 9.60799 13.8409C8.67518 14.6514 7.86674 15.4619 7.18268 16.2724L0.746251 8.88437C1.36813 8.13622 2.33204 7.29454 3.63798 6.35934C5.0061 5.3618 6.62298 4.39543 8.48861 3.46023C10.4164 2.46269 12.593 1.65218 15.0183 1.02872C17.4436 0.342906 20.0866 0 22.9472 0C26.9894 0 30.4409 0.685813 33.3015 2.05744C36.1621 3.36671 38.3387 5.20593 39.8312 7.5751C41.3859 9.88192 42.1632 12.5005 42.1632 15.4308C42.1632 17.7376 41.6968 19.7638 40.764 21.5095C39.8934 23.2552 38.7429 24.8139 37.3126 26.1855C35.8823 27.4948 34.3587 28.6482 32.7418 29.6458C31.1871 30.5809 29.7257 31.4226 28.3576 32.1708C25.9322 33.3554 23.8179 34.4464 22.0144 35.444C20.2732 36.4415 18.7807 37.4391 17.5369 38.4366C16.2932 39.3718 15.2671 40.3693 14.4586 41.4292C13.6502 42.4268 12.9661 43.6425 12.4064 45.0765H43.1893V54.335H0Z" fill="var(--fill-0, #6F41A9)"/>
</svg>
