<svg preserveAspectRatio="none" width="100%" height="100%" overflow="visible" style="display: block;" viewBox="0 0 37.5178 55.4678" fill="none" xmlns="http://www.w3.org/2000/svg">
<path id="Vector" d="M17.7959 55.4678C13.8413 55.4678 10.2975 54.569 7.16459 52.7714C4.03169 51.0252 1.64349 48.637 0 45.6069L5.08455 40.7534C6.5226 42.9619 8.37153 44.7081 10.6313 45.992C12.8911 47.3274 15.305 47.9951 17.873 47.9951C19.9787 47.9951 21.8533 47.5328 23.4968 46.6084C25.1403 45.7353 26.4242 44.5026 27.3487 42.9105C28.3245 41.267 28.8124 39.3924 28.8124 37.2867C28.8124 35.2323 28.3502 33.4348 27.4257 31.894C26.5013 30.3019 25.2687 29.0949 23.7279 28.2732C22.1871 27.4001 20.4152 26.9635 18.4122 26.9635C16.4606 26.9635 14.6373 27.4001 12.9425 28.2732C11.2476 29.1463 9.86094 30.3789 8.7824 31.971H1.30966L7.54978 0H34.2822V7.7809H13.7129L10.9395 22.7264C11.8126 21.8019 12.9938 21.0572 14.4833 20.4923C15.9727 19.876 17.6675 19.5678 19.5678 19.5678C23.0089 19.5678 26.0647 20.3382 28.7354 21.879C31.4574 23.3684 33.5888 25.4227 35.1296 28.0421C36.7217 30.6614 37.5178 33.6916 37.5178 37.1326C37.5178 40.7791 36.6447 43.9634 34.8985 46.6854C33.1523 49.4588 30.7898 51.6159 27.8109 53.1566C24.8321 54.6974 21.4938 55.4678 17.7959 55.4678Z" fill="var(--fill-0, #6F41A9)"/>
</svg>
