<svg preserveAspectRatio="none" width="100%" height="100%" overflow="visible" style="display: block;" viewBox="0 0 88.6141 34.3056" fill="none" xmlns="http://www.w3.org/2000/svg">
<g id="Group">
<path id="Vector" d="M6.14614 33.5828H8.55639V33.9042H0V33.5828H2.41025V2.32991C2.41025 1.95498 2.3433 1.66039 2.2094 1.44615C2.07549 1.2319 1.89473 1.07792 1.66709 0.984187C1.43946 0.890455 1.18504 0.843586 0.903845 0.843586C0.622648 0.843586 0.321367 0.856979 0 0.88376V0.682905L6.14614 0V33.5828ZM15.5461 29.3247C15.9211 29.8336 16.3362 30.3625 16.7914 30.9115C17.2467 31.4605 17.7488 31.9559 18.2978 32.3978C18.8468 32.8397 19.4226 33.2012 20.0252 33.4824C20.6277 33.7636 21.2504 33.9042 21.8931 33.9042H15.8675C15.5193 33.9042 15.1712 33.8105 14.8231 33.623C14.4749 33.4355 14.1535 33.1945 13.8589 32.8999C13.5644 32.6053 13.2765 32.2907 12.9953 31.9559C12.7141 31.6212 12.453 31.2931 12.2119 30.9717L6.66837 23.9418L13.2564 16.9923C14.1134 16.0817 14.736 15.3252 15.1243 14.7226C15.5127 14.1201 15.6934 13.6447 15.6666 13.2966C15.6399 12.9484 15.4189 12.7007 15.0038 12.5534C14.5887 12.4061 14.0062 12.3325 13.2564 12.3325V12.2119H21.853V12.3325C21.2638 12.3325 20.7081 12.3659 20.1859 12.4329C19.6636 12.4998 19.1146 12.6739 18.5389 12.9551C17.9631 13.2363 17.327 13.6581 16.6307 14.2205C15.9344 14.7829 15.1176 15.5461 14.1803 16.5102L9.31964 21.6119L15.5461 29.3247Z" fill="var(--fill-0, white)"/>
<path id="Vector_2" d="M40.8155 25.5885C40.5209 27.0346 40.0389 28.3067 39.3694 29.4047C38.6998 30.5027 37.9165 31.4133 37.0194 32.1363C36.1222 32.8594 35.138 33.4017 34.0668 33.7633C32.9956 34.1248 31.911 34.3056 30.813 34.3056C29.6078 34.3056 28.4295 34.0779 27.2779 33.6227C26.1264 33.1674 25.102 32.4912 24.2049 31.594C23.3077 30.6969 22.5846 29.5654 22.0356 28.1996C21.4866 26.8338 21.2121 25.2403 21.2121 23.4193C21.2121 21.3036 21.5067 19.516 22.0959 18.0565C22.6851 16.5969 23.455 15.4186 24.4057 14.5214C25.3564 13.6243 26.421 12.9748 27.5993 12.5731C28.7776 12.1714 29.9426 11.9706 31.0942 11.9706C32.0315 11.9706 32.9286 12.0844 33.7856 12.312C34.6426 12.5397 35.3991 12.8543 36.0553 13.256C36.7114 13.6577 37.2336 14.1398 37.6219 14.7022C38.0102 15.2646 38.2044 15.8671 38.2044 16.5099C38.2044 16.9651 38.0906 17.3066 37.8629 17.5342C37.6353 17.7619 37.3474 17.9225 36.9993 18.0163C36.6511 18.11 36.2963 18.1636 35.9348 18.177C35.5732 18.1904 35.2451 18.2104 34.9506 18.2372L23.4215 18.1971C23.3144 18.7327 23.2608 19.3352 23.2608 20.0047C23.2608 21.9597 23.5153 23.6536 24.0241 25.0864C24.5329 26.5191 25.2091 27.6975 26.0527 28.6214C26.8963 29.5453 27.8604 30.2282 28.945 30.6701C30.0296 31.112 31.1343 31.3329 32.2591 31.3329C33.1161 31.3329 33.9731 31.2057 34.8301 30.9513C35.687 30.6969 36.4837 30.3287 37.2202 29.8466C37.9567 29.3646 38.6262 28.762 39.2288 28.0389C39.8313 27.3158 40.3201 26.499 40.695 25.5885H40.8155ZM35.2719 16.55C35.2719 15.9073 35.1447 15.3315 34.8903 14.8227C34.6359 14.3139 34.2877 13.8787 33.8459 13.5171C33.404 13.1556 32.9018 12.8811 32.3395 12.6936C31.7771 12.5062 31.1745 12.4124 30.5318 12.4124C29.889 12.4124 29.2262 12.5129 28.5433 12.7137C27.8604 12.9146 27.211 13.2359 26.595 13.6778C25.9791 14.1197 25.4033 14.6687 24.8677 15.3248C24.3321 15.981 23.8902 16.7777 23.542 17.715H33.8659C34.4551 17.715 34.8367 17.628 35.0108 17.4539C35.1849 17.2798 35.2719 16.9785 35.2719 16.55Z" fill="var(--fill-0, white)"/>
<path id="Vector_3" d="M62.5068 25.5885C62.2122 27.0346 61.7302 28.3067 61.0607 29.4047C60.3911 30.5027 59.6078 31.4133 58.7107 32.1363C57.8135 32.8594 56.8293 33.4017 55.7581 33.7633C54.6869 34.1248 53.6023 34.3056 52.5043 34.3056C51.2991 34.3056 50.1208 34.0779 48.9692 33.6227C47.8177 33.1674 46.7933 32.4912 45.8962 31.594C44.999 30.6969 44.2759 29.5654 43.7269 28.1996C43.1779 26.8338 42.9034 25.2403 42.9034 23.4193C42.9034 21.3036 43.198 19.516 43.7872 18.0565C44.3764 16.5969 45.1463 15.4186 46.097 14.5214C47.0477 13.6243 48.1123 12.9748 49.2906 12.5731C50.469 12.1714 51.6339 11.9706 52.7855 11.9706C53.7228 11.9706 54.6199 12.0844 55.4769 12.312C56.3339 12.5397 57.0904 12.8543 57.7466 13.256C58.4027 13.6577 58.9249 14.1398 59.3132 14.7022C59.7016 15.2646 59.8957 15.8671 59.8957 16.5099C59.8957 16.9651 59.7819 17.3066 59.5543 17.5342C59.3266 17.7619 59.0387 17.9225 58.6906 18.0163C58.3424 18.11 57.9876 18.1636 57.6261 18.177C57.2645 18.1904 56.9365 18.2104 56.6419 18.2372L45.1128 18.1971C45.0057 18.7327 44.9522 19.3352 44.9522 20.0047C44.9522 21.9597 45.2066 23.6536 45.7154 25.0864C46.2242 26.5191 46.9004 27.6975 47.744 28.6214C48.5876 29.5453 49.5517 30.2282 50.6363 30.6701C51.7209 31.112 52.8256 31.3329 53.9504 31.3329C54.8074 31.3329 55.6644 31.2057 56.5214 30.9513C57.3783 30.6969 58.1751 30.3287 58.9115 29.8466C59.648 29.3646 60.3175 28.762 60.9201 28.0389C61.5226 27.3158 62.0114 26.499 62.3863 25.5885H62.5068ZM56.9632 16.55C56.9632 15.9073 56.836 15.3315 56.5816 14.8227C56.3272 14.3139 55.979 13.8787 55.5372 13.5171C55.0953 13.1556 54.5932 12.8811 54.0308 12.6936C53.4684 12.5062 52.8658 12.4124 52.2231 12.4124C51.5803 12.4124 50.9175 12.5129 50.2346 12.7137C49.5517 12.9146 48.9023 13.2359 48.2863 13.6778C47.6704 14.1197 47.0946 14.6687 46.559 15.3248C46.0234 15.981 45.5815 16.7777 45.2333 17.715H55.5573C56.1464 17.715 56.5281 17.628 56.7021 17.4539C56.8762 17.2798 56.9632 16.9785 56.9632 16.55Z" fill="var(--fill-0, white)"/>
<path id="Vector_4" d="M88.6141 31.976C87.8643 32.7259 87.0943 33.2749 86.3043 33.623C85.5143 33.9712 84.7577 34.1452 84.0346 34.1452C83.0973 34.1452 82.3207 33.864 81.7047 33.3016C81.0888 32.7393 80.7808 31.9492 80.7808 30.9316V17.876C80.7808 16.1621 80.3925 14.9369 79.6159 14.2004C78.8392 13.4639 77.8751 13.0957 76.7235 13.0957C75.5988 13.0957 74.3869 13.4104 73.0881 14.0397C71.7892 14.6691 70.631 15.5193 69.6133 16.5906V33.5828H72.0236V33.9042H63.4672V33.5828H65.8774V14.3008C65.8774 13.9259 65.8105 13.6313 65.6766 13.4171C65.5427 13.2028 65.3619 13.0488 65.1343 12.9551C64.9066 12.8614 64.6522 12.8145 64.371 12.8145C64.0898 12.8145 63.7885 12.8279 63.4672 12.8547V12.6538L69.6133 12.0111V16.1085C70.2025 15.4658 70.8586 14.8967 71.5817 14.4013C72.3048 13.9058 73.0613 13.4773 73.8513 13.1158C74.6414 12.7543 75.4448 12.4797 76.2616 12.2923C77.0784 12.1048 77.8617 12.0111 78.6116 12.0111C79.415 12.0111 80.1715 12.1249 80.8812 12.3525C81.5909 12.5802 82.2136 12.9283 82.7492 13.397C83.2848 13.8656 83.7066 14.4682 84.0146 15.2047C84.3225 15.9411 84.4765 16.8316 84.4765 17.876V29.6863C84.4765 30.7039 84.6439 31.5007 84.9787 32.0764C85.3134 32.6522 85.762 32.9401 86.3244 32.9401C86.9939 32.9401 87.7304 32.5786 88.5338 31.8555L88.6141 31.976Z" fill="var(--fill-0, white)"/>
</g>
</svg>
