<svg preserveAspectRatio="none" width="100%" height="100%" overflow="visible" style="display: block;" viewBox="0 0 38.2295 40.6816" fill="none" xmlns="http://www.w3.org/2000/svg">
<path id="Vector" d="M8.91651 16.5513C7.28181 16.5513 5.77715 16.1797 4.40252 15.4367C3.06504 14.6937 1.98763 13.7091 1.17029 12.4831C0.390092 11.2199 0 9.82673 0 8.30349C0 6.74311 0.390092 5.3499 1.17029 4.12388C1.98763 2.86071 3.06504 1.85761 4.40252 1.11456C5.77715 0.371521 7.28181 0 8.91651 0C10.5512 0 12.0373 0.371521 13.3748 1.11456C14.7122 1.85761 15.7711 2.86071 16.5513 4.12388C17.3315 5.3499 17.7216 6.72453 17.7216 8.24777C17.7216 9.771 17.3315 11.1642 16.5513 12.4274C15.7711 13.6905 14.7122 14.6937 13.3748 15.4367C12.0373 16.1797 10.5512 16.5513 8.91651 16.5513ZM8.86078 13.3748C9.71528 13.3748 10.4769 13.1518 11.1456 12.706C11.8515 12.223 12.3902 11.5915 12.7617 10.8113C13.1704 10.0311 13.3748 9.19514 13.3748 8.30349C13.3748 7.33754 13.1704 6.46447 12.7617 5.68427C12.3531 4.90408 11.7958 4.29107 11.0899 3.84524C10.4212 3.39942 9.6967 3.1765 8.91651 3.1765C8.06201 3.1765 7.28181 3.41799 6.57592 3.90097C5.90719 4.3468 5.36848 4.95981 4.9598 5.74C4.55113 6.52019 4.34679 7.35612 4.34679 8.24777C4.34679 9.21372 4.55113 10.0868 4.9598 10.867C5.40563 11.61 5.96291 12.223 6.63164 12.706C7.33753 13.1518 8.08058 13.3748 8.86078 13.3748ZM29.3687 40.6816C27.7341 40.6816 26.248 40.31 24.9105 39.567C23.573 38.8239 22.4956 37.8208 21.6783 36.5577C20.8981 35.2945 20.508 33.9013 20.508 32.3781C20.508 30.8548 20.8981 29.4802 21.6783 28.2542C22.4956 26.991 23.573 25.9879 24.9105 25.2449C26.248 24.5018 27.7341 24.1303 29.3687 24.1303C31.0406 24.1303 32.5452 24.5018 33.8827 25.2449C35.2202 25.9507 36.279 26.9353 37.0592 28.1984C37.8394 29.4616 38.2295 30.8548 38.2295 32.3781C38.2295 33.9013 37.8394 35.2945 37.0592 36.5577C36.279 37.8208 35.2202 38.8239 33.8827 39.567C32.5452 40.31 31.0406 40.6816 29.3687 40.6816ZM29.3687 37.505C30.2232 37.505 30.9849 37.2636 31.6536 36.7806C32.3595 36.2976 32.8982 35.6846 33.2697 34.9416C33.6784 34.1614 33.8827 33.3254 33.8827 32.4338C33.8827 31.4678 33.6784 30.5948 33.2697 29.8146C32.861 29.0344 32.3038 28.4214 31.5979 27.9755C30.9291 27.5297 30.1861 27.3068 29.3687 27.3068C28.5514 27.3068 27.7898 27.5483 27.0839 28.0313C26.4151 28.4771 25.8764 29.0901 25.4678 29.8703C25.0591 30.6505 24.8548 31.4864 24.8548 32.3781C24.8548 33.3069 25.0591 34.1614 25.4678 34.9416C25.9136 35.7217 26.4709 36.3533 27.1396 36.8363C27.8083 37.2821 28.5514 37.505 29.3687 37.505ZM2.50776 37.8951L18.1674 19.3377L32.8796 0.222912L35.7775 2.73068L20.3965 21.0652L5.3499 40.4586L2.50776 37.8951Z" fill="var(--fill-0, #6F41A9)"/>
</svg>
